<svg xmlns="http://www.w3.org/2000/svg" height="257.897" width="169.445"><g transform="translate(-1322.758 -3569.5)"><path d="M1429.74 3689.808c11.392 33.734 29.522 62.582 13.238 78.462-4.107 4-31.628 10.839-37.163 12.443-27.481 7.962-61.323-19.829-75.59-62.073s-3.555-82.944 23.925-90.906c3.435-.995 33.808-12.281 37.391-12.2 25.082.566 25.715 37.31 38.199 74.274z" fill="#555556" stroke="#3e4147" stroke-linecap="round" stroke-linejoin="round" stroke-width="2"/><ellipse cx="51.72" cy="80.787" fill="#555556" rx="51.72" ry="80.787" stroke="#3e4147" stroke-linecap="round" stroke-linejoin="round" stroke-width="2" transform="rotate(-20.45 10757.024 -1890.958)"/><ellipse cx="1401.7" cy="3623.24" fill="#a7a9ac" rx="7.427" ry="2.668"/><g stroke="#3e4147" stroke-linecap="round" stroke-linejoin="round" stroke-width="2"><ellipse cx="29.968" cy="54.31" fill="#a7a9ac" rx="29.968" ry="54.31" transform="rotate(-19.759 11163.689 -2116.535)"/><path d="M1388.734 3671.784a9.285 9.285 0 00-2.982 1.49 89.063 89.063 0 004.8 25.491 87.8 87.8 0 0016.515 29.558c.237-.049.472-.1.706-.169 8.723-2.528 11.533-17.2 6.276-32.761s-16.591-26.136-25.315-23.609z" fill="#3e4147"/><path d="M1334.946 3641.783l3.611 3.388 5.844-6.351s2.7 6.266 3.014 4.74 7.357-8.193 7.357-8.193 1.19 8.109 2.05 6.679 12.516-11.867 12.516-11.867M1327.848 3655.94s4.127 7.567 4.987 6.137 7.668-9.719 7.668-9.719l2.63 9.414 7.222-10.324s.6 13.8 1.666 11.352 8.492-12.682 8.492-12.682M1324.258 3673.68s7.1 12.366 7.516 10.332 4.923-10.2 4.923-10.2 5.82 10.5 6.235 8.464 4.892-12.838 4.581-11.312 3 13.165 3.52 10.623 4.789-12.33 4.789-12.33M1325.009 3696.924s8.345 10.012 8.656 8.486 3.825-10.391 3.825-10.391l6.888 8.051 3.483-11.5s5.405 12.533 5.271 10.4 6.187-16.4 6.187-16.4M1329.621 3716.8s12.286 9.536 12.256 6.9 2.519-9.566 2.519-9.566l6.546 6.939s1.836-11.793 2.52-9.567 5.374 9.894 5.789 7.86 4.536-14.434 4.536-14.434M1337.025 3734.929s12.887 10.717 12.649 9.1 1.97-9.663 1.97-9.663l6.546 6.939s.4-13.1 1.08-10.871 9.083 8.435 8.949 6.305 2.532-14.411 2.532-14.411M1351.714 3757.272l10.326 4.19-2.081-9.318 10.048 6.5-.33-9.538s10.182 8.628 10.048 6.5-1.83-16.121-1.83-16.121M1364.456 3769.618l14.726 5.376-1.842-7.7 13.311 4.436-5.033-8.781 11.561 4.656-3.459-13.744M1387.022 3781l13.289.823-3.9-4.868 12.048-.526-5.966-4.2 12.494.079-6.911-7.952" fill="none"/><path d="M1429.952 3613.286a4.505 4.505 0 01-2.592-4.961 4.842 4.842 0 014.406-3.7 60.674 60.674 0 0112.436.05c-9.208-15.164-29.19-23.3-47.108-24.708-21.13-1.663-47.966 5.188-59.915 29.388a5.138 5.138 0 01-6.583 2.271 4.468 4.468 0 01-2.453-6.1c14.1-28.543 45.292-36.661 69.791-34.73 25.323 1.989 46.589 14.176 56.007 31.326a78.871 78.871 0 011.546-10 4.974 4.974 0 015.9-3.532c2.682.534 3.762 2.923 3.813 5.465.112 5.588.112 24.549-5.572 27.513-4.207 2.187-25.451-6.256-29.676-8.282zM1366 3783.609a4.507 4.507 0 012.592 4.962 4.844 4.844 0 01-4.406 3.7 60.6 60.6 0 01-12.436-.051c9.208 15.164 29.19 23.3 47.108 24.709 21.13 1.662 47.966-5.189 59.915-29.389a5.138 5.138 0 016.583-2.271 4.468 4.468 0 012.453 6.1c-14.095 28.544-45.292 36.661-69.791 34.731-25.323-1.99-46.589-14.177-56.007-31.326a78.927 78.927 0 01-1.546 10 4.973 4.973 0 01-5.9 3.532c-2.682-.533-3.762-2.923-3.813-5.465-.112-5.588-.112-24.549 5.572-27.513 4.204-2.188 25.448 6.255 29.676 8.281z" fill="#fdbe2a"/></g></g></svg>
